Light Wide — SC 0.ufo
<glyph name="a.sc" format="1">
  <advance width="1387"/>
  <outline>
    <contour>
      <point x="798" y="1292" type="move" name="top"/>
    </contour>
    <contour>
      <point x="1114" y="-121" type="move" name="ogonek"/>
    </contour>
    <contour>
      <point x="592" y="-121" type="move" name="bottom"/>
    </contour>
    <contour>
      <point x="-119" y="62" type="line"/>
      <point x="-124" y="0" type="line"/>
      <point x="364" y="0" type="line"/>
      <point x="368" y="62" type="line"/>
      <point x="177" y="84" type="line"/>
      <point x="714" y="1067" type="line"/>
      <point x="810" y="1245" type="line"/>
      <point x="766" y="1251" type="line"/>
      <point x="793" y="1076" type="line"/>
      <point x="1020" y="82" type="line"/>
      <point x="832" y="62" type="line"/>
      <point x="828" y="0" type="line"/>
      <point x="1354" y="0" type="line"/>
      <point x="1357" y="62" type="line"/>
      <point x="1185" y="86" type="line"/>
      <point x="885" y="1303" type="line"/>
      <point x="719" y="1303" type="line"/>
      <point x="26" y="82" type="line"/>
    </contour>
    <contour>
      <point x="285" y="474" type="line"/>
      <point x="265" y="386" type="line"/>
      <point x="986" y="386" type="line"/>
      <point x="984" y="474" type="line"/>
    </contour>
  </outline>
</glyph>
<glyph name="ae.sc" format="1">
  <advance width="1916"/>
  <outline>
    <contour>
      <point x="1173" y="1292" type="move" name="top"/>
    </contour>
    <contour>
      <point x="724" y="62" type="line"/>
      <point x="715" y="0" type="line"/>
      <point x="1742" y="0" type="line"/>
      <point x="1808" y="270" type="line"/>
      <point x="1719" y="290" type="line"/>
      <point x="1625" y="102" type="line"/>
      <point x="1022" y="84" type="line"/>
      <point x="1089" y="620" type="line"/>
      <point x="1545" y="608" type="line"/>
      <point x="1556" y="732" type="line"/>
      <point x="1095" y="712" type="line"/>
      <point x="1163" y="1214" type="line"/>
      <point x="1652" y="1204" type="line"/>
      <point x="1690" y="1036" type="line"/>
      <point x="1780" y="1036" type="line"/>
      <point x="1781" y="1292" type="line"/>
      <point x="408" y="1292" type="line"/>
      <point x="398" y="1220" type="line"/>
      <point x="718" y="1204" type="line"/>
      <point x="16" y="82" type="line"/>
      <point x="-156" y="62" type="line"/>
      <point x="-166" y="0" type="line"/>
      <point x="409" y="0" type="line"/>
      <point x="412" y="62" type="line"/>
      <point x="180" y="84" type="line"/>
      <point x="379" y="416" type="line"/>
      <point x="899" y="416" type="line"/>
      <point x="858" y="82" type="line"/>
    </contour>
    <contour>
      <point x="429" y="504" type="line"/>
      <point x="843" y="1206" type="line"/>
      <point x="992" y="1202" type="line"/>
      <point x="907" y="504" type="line"/>
    </contour>
  </outline>
</glyph>
<glyph name="b.sc" format="1">
  <advance width="1326"/>
  <outline>
    <contour>
      <point x="731" y="1292" type="move" name="top"/>
    </contour>
    <contour>
      <point x="584" y="0" type="move" name="bottom"/>
    </contour>
    <contour>
      <point x="514" y="-12" type="curve"/>
      <point x="888" y="-12"/>
      <point x="1206" y="108"/>
      <point x="1196" y="418" type="curve"/>
      <point x="1192" y="563"/>
      <point x="1052" y="669"/>
      <point x="875" y="686" type="curve"/>
      <point x="1077" y="732"/>
      <point x="1202" y="849"/>
      <point x="1197" y="1034" type="curve"/>
      <point x="1193" y="1175"/>
      <point x="1062" y="1306"/>
      <point x="737" y="1306" type="curve"/>
      <point x="632" y="1306"/>
      <point x="538" y="1294"/>
      <point x="445" y="1292" type="curve"/>
      <point x="193" y="1292" type="line"/>
      <point x="187" y="1222" type="line"/>
      <point x="327" y="1204" type="line"/>
      <point x="171" y="84" type="line"/>
      <point x="18" y="62" type="line"/>
      <point x="12" y="0" type="line"/>
      <point x="237" y="0" type="line" smooth="yes"/>
      <point x="310" y="0"/>
      <point x="432" y="-12"/>
    </contour>
    <contour>
      <point x="550" y="75" type="curve"/>
      <point x="487" y="75"/>
      <point x="310" y="83"/>
      <point x="326" y="98" type="curve"/>
      <point x="325" y="17" type="line"/>
      <point x="499" y="1285" type="line"/>
      <point x="466" y="1208" type="line"/>
      <point x="479" y="1214"/>
      <point x="642" y="1224"/>
      <point x="700" y="1224" type="curve"/>
      <point x="936" y="1224"/>
      <point x="1029" y="1152"/>
      <point x="1035" y="1017" type="curve"/>
      <point x="1041" y="800"/>
      <point x="863" y="715"/>
      <point x="660" y="715" type="curve"/>
      <point x="601" y="715"/>
      <point x="438" y="714"/>
      <point x="371" y="714" type="curve"/>
      <point x="361" y="621" type="line"/>
      <point x="415" y="622"/>
      <point x="573" y="623"/>
      <point x="688" y="623" type="curve"/>
      <point x="900" y="623"/>
      <point x="1017" y="551"/>
      <point x="1023" y="403" type="curve"/>
      <point x="1031" y="160"/>
      <point x="827" y="75"/>
    </contour>
  </outline>
</glyph>
<glyph name="c.sc" format="1">
  <advance width="1277"/>
  <outline>
    <contour>
      <point x="759" y="1307" type="move" name="top"/>
    </contour>
    <contour>
      <point x="637" y="0" type="move" name="bottom"/>
    </contour>
    <contour>
      <point x="631" y="-14" type="curve"/>
      <point x="841" y="-14"/>
      <point x="1009" y="41"/>
      <point x="1092" y="66" type="curve"/>
      <point x="1127" y="342" type="line"/>
      <point x="1026" y="342" type="line"/>
      <point x="968" y="167"/>
      <point x="986" y="222"/>
      <point x="964" y="156" type="curve"/>
      <point x="908" y="98"/>
      <point x="761" y="74"/>
      <point x="658" y="74" type="curve"/>
      <point x="373" y="74"/>
      <point x="262" y="312"/>
      <point x="251" y="548" type="curve"/>
      <point x="237" y="846"/>
      <point x="409" y="1222"/>
      <point x="803" y="1222" type="curve"/>
      <point x="938" y="1222"/>
      <point x="1006" y="1204"/>
      <point x="1057" y="1180" type="curve"/>
      <point x="1073" y="944" type="line"/>
      <point x="1171" y="944" type="line"/>
      <point x="1227" y="1255" type="line"/>
      <point x="1121" y="1281"/>
      <point x="1008" y="1306"/>
      <point x="819" y="1306" type="curve"/>
      <point x="406" y="1306"/>
      <point x="55" y="1002"/>
      <point x="78" y="534" type="curve"/>
      <point x="90" y="266"/>
      <point x="245" y="-14"/>
    </contour>
  </outline>
</glyph>
<glyph name="d.sc" format="1">
  <advance width="1470"/>
  <outline>
    <contour>
      <point x="766" y="1292" type="move" name="top"/>
    </contour>
    <contour>
      <point x="602" y="0" type="move" name="bottom"/>
    </contour>
    <contour>
      <point x="577" y="-14" type="curve"/>
      <point x="1096" y="-14"/>
      <point x="1373" y="334"/>
      <point x="1368" y="783" type="curve"/>
      <point x="1365" y="1090"/>
      <point x="1193" y="1306"/>
      <point x="768" y="1306" type="curve"/>
      <point x="665" y="1306"/>
      <point x="565" y="1294"/>
      <point x="470" y="1292" type="curve"/>
      <point x="195" y="1292" type="line"/>
      <point x="190" y="1222" type="line"/>
      <point x="327" y="1204" type="line"/>
      <point x="171" y="84" type="line"/>
      <point x="19" y="62" type="line"/>
      <point x="11" y="0" type="line"/>
      <point x="247" y="0" type="line" smooth="yes"/>
      <point x="365" y="0"/>
      <point x="495" y="-14"/>
    </contour>
    <contour>
      <point x="617" y="72" type="curve"/>
      <point x="540" y="72"/>
      <point x="364" y="83"/>
      <point x="298" y="103" type="curve"/>
      <point x="326" y="20" type="line"/>
      <point x="503" y="1280" type="line"/>
      <point x="455" y="1202" type="line"/>
      <point x="510" y="1209"/>
      <point x="637" y="1224"/>
      <point x="727" y="1224" type="curve"/>
      <point x="1065" y="1224"/>
      <point x="1200" y="1079"/>
      <point x="1203" y="770" type="curve"/>
      <point x="1206" y="438"/>
      <point x="1027" y="73"/>
    </contour>
  </outline>
</glyph>
<glyph name="e.sc" format="1">
  <advance width="1275"/>
  <outline>
    <contour>
      <point x="716" y="1292" type="move" name="top"/>
    </contour>
    <contour>
      <point x="963" y="0" type="move" name="ogonek"/>
    </contour>
    <contour>
      <point x="598" y="0" type="move" name="bottom"/>
    </contour>
    <contour>
      <point x="1149" y="1292" type="line"/>
      <point x="199" y="1292" type="line"/>
      <point x="190" y="1222" type="line"/>
      <point x="329" y="1204" type="line"/>
      <point x="174" y="82" type="line"/>
      <point x="19" y="62" type="line"/>
      <point x="11" y="0" type="line"/>
      <point x="1080" y="0" type="line"/>
      <point x="1169" y="282" type="line"/>
      <point x="1080" y="305" type="line"/>
      <point x="965" y="104" type="line"/>
      <point x="336" y="87" type="line"/>
      <point x="413" y="623" type="line"/>
      <point x="911" y="609" type="line"/>
      <point x="916" y="725" type="line"/>
      <point x="424" y="718" type="line"/>
      <point x="496" y="1216" type="line"/>
      <point x="1018" y="1205" type="line"/>
      <point x="1054" y="1023" type="line"/>
      <point x="1145" y="1023" type="line"/>
    </contour>
  </outline>
</glyph>
<glyph name="ezh.sc" format="1">
  <advance width="1230"/>
  <outline>
    <contour>
      <point x="465" y="-10" type="curve"/>
      <point x="870" y="-10"/>
      <point x="1128" y="184"/>
      <point x="1126" y="442" type="curve"/>
      <point x="1124" y="657"/>
      <point x="909" y="765"/>
      <point x="628" y="758" type="curve"/>
      <point x="591" y="695" type="line"/>
      <point x="1141" y="1218" type="line"/>
      <point x="1150" y="1292" type="line"/>
      <point x="250" y="1292" type="line"/>
      <point x="228" y="990" type="line"/>
      <point x="325" y="990" type="line"/>
      <point x="380" y="1178" type="line"/>
      <point x="948" y="1178" type="line"/>
      <point x="817" y="1052" type="line"/>
      <point x="420" y="672" type="line"/>
      <point x="456" y="634" type="line"/>
      <point x="502" y="646"/>
      <point x="546" y="656"/>
      <point x="616" y="656" type="curve"/>
      <point x="821" y="653"/>
      <point x="947" y="570"/>
      <point x="948" y="424" type="curve"/>
      <point x="950" y="253"/>
      <point x="810" y="80"/>
      <point x="494" y="80" type="curve"/>
      <point x="316" y="80"/>
      <point x="231" y="120"/>
      <point x="231" y="128" type="curve"/>
      <point x="216" y="342" type="line"/>
      <point x="128" y="342" type="line"/>
      <point x="76" y="52" type="line" smooth="yes"/>
      <point x="76" y="50"/>
      <point x="287" y="-10"/>
    </contour>
  </outline>
</glyph>
<glyph name="f.sc" format="1">
  <advance width="1198"/>
  <outline>
    <contour>
      <point x="729" y="1292" type="move" name="top"/>
    </contour>
    <contour>
      <point x="18" y="62" type="line"/>
      <point x="12" y="0" type="line"/>
      <point x="576" y="0" type="line"/>
      <point x="582" y="62" type="line"/>
      <point x="337" y="86" type="line"/>
      <point x="411" y="618" type="line"/>
      <point x="935" y="603" type="line"/>
      <point x="943" y="722" type="line"/>
      <point x="425" y="715" type="line"/>
      <point x="495" y="1214" type="line"/>
      <point x="1043" y="1202" type="line"/>
      <point x="1068" y="1022" type="line"/>
      <point x="1170" y="1022" type="line"/>
      <point x="1187" y="1292" type="line"/>
      <point x="196" y="1292" type="line"/>
      <point x="188" y="1222" type="line"/>
      <point x="330" y="1204" type="line"/>
      <point x="172" y="84" type="line"/>
    </contour>
  </outline>
</glyph>
<glyph name="g.sc" format="1">
  <advance width="1393"/>
  <outline>
    <contour>
      <point x="832" y="1292" type="move" name="top"/>
    </contour>
    <contour>
      <point x="702" y="0" type="move" name="bottom"/>
    </contour>
    <contour>
      <point x="632" y="-14" type="curve"/>
      <point x="794" y="-14"/>
      <point x="940" y="25"/>
      <point x="1043" y="51" type="curve"/>
      <point x="1097" y="65"/>
      <point x="1138" y="76"/>
      <point x="1178" y="79" type="curve"/>
      <point x="1258" y="618" type="line"/>
      <point x="800" y="618" type="line"/>
      <point x="792" y="534" type="line"/>
      <point x="1077" y="520" type="line"/>
      <point x="1024" y="150" type="line"/>
      <point x="946" y="96"/>
      <point x="791" y="72"/>
      <point x="674" y="72" type="curve"/>
      <point x="398" y="72"/>
      <point x="276" y="306"/>
      <point x="264" y="550" type="curve"/>
      <point x="254" y="856"/>
      <point x="428" y="1224"/>
      <point x="818" y="1224" type="curve"/>
      <point x="981" y="1224"/>
      <point x="1061" y="1202"/>
      <point x="1123" y="1169" type="curve"/>
      <point x="1131" y="994" type="line"/>
      <point x="1236" y="994" type="line"/>
      <point x="1289" y="1250" type="line"/>
      <point x="1207" y="1250"/>
      <point x="1118" y="1306"/>
      <point x="835" y="1306" type="curve"/>
      <point x="421" y="1306"/>
      <point x="74" y="998"/>
      <point x="94" y="532" type="curve"/>
      <point x="105" y="266"/>
      <point x="264" y="-14"/>
    </contour>
  </outline>
</glyph>
<glyph name="germandbls.sc" format="1">
  <advance width="1454"/>
  <outline>
    <contour>
      <point x="879" y="-18" type="curve"/>
      <point x="1180" y="-18"/>
      <point x="1320" y="211"/>
      <point x="1322" y="396" type="curve"/>
      <point x="1327" y="666"/>
      <point x="1069" y="761"/>
      <point x="902" y="758" type="curve"/>
      <point x="1256" y="1113" type="line"/>
      <point x="1282" y="1201" type="line"/>
      <point x="1203" y="1247"/>
      <point x="1101" y="1301"/>
      <point x="863" y="1301" type="curve"/>
      <point x="504" y="1301"/>
      <point x="283" y="1060"/>
      <point x="240" y="775" type="curve"/>
      <point x="142" y="92" type="line"/>
      <point x="13" y="73" type="line"/>
      <point x="9" y="0" type="line"/>
      <point x="297" y="0" type="line"/>
      <point x="396" y="711" type="line" smooth="yes"/>
      <point x="446" y="1068"/>
      <point x="590" y="1221"/>
      <point x="831" y="1221" type="curve"/>
      <point x="1017" y="1219"/>
      <point x="1119" y="1172"/>
      <point x="1147" y="1130" type="curve"/>
      <point x="800" y="774" type="line"/>
      <point x="789" y="704" type="line"/>
      <point x="964" y="709"/>
      <point x="1170" y="620"/>
      <point x="1167" y="387" type="curve"/>
      <point x="1165" y="199"/>
      <point x="1052" y="63"/>
      <point x="896" y="63" type="curve"/>
      <point x="791" y="63"/>
      <point x="688" y="96"/>
      <point x="664" y="131" type="curve"/>
      <point x="645" y="273" type="line"/>
      <point x="547" y="273" type="line"/>
      <point x="512" y="54" type="line"/>
      <point x="568" y="48"/>
      <point x="681" y="-18"/>
    </contour>
  </outline>
</glyph>
<glyph name="h.sc" format="1">
  <advance width="1572"/>
  <outline>
    <contour>
      <point x="874" y="1292" type="move" name="top"/>
    </contour>
    <contour>
      <point x="710" y="0" type="move" name="bottom"/>
    </contour>
    <contour>
      <point x="20" y="62" type="line"/>
      <point x="12" y="0" type="line"/>
      <point x="487" y="0" type="line"/>
      <point x="496" y="62" type="line"/>
      <point x="335" y="84" type="line"/>
      <point x="490" y="1204" type="line"/>
      <point x="643" y="1222" type="line"/>
      <point x="652" y="1292" type="line"/>
      <point x="191" y="1292" type="line"/>
      <point x="183" y="1222" type="line"/>
      <point x="325" y="1204" type="line"/>
      <point x="170" y="84" type="line"/>
    </contour>
    <contour>
      <point x="377" y="705" type="line"/>
      <point x="378" y="613" type="line"/>
      <point x="1203" y="613" type="line"/>
      <point x="1202" y="705" type="line"/>
    </contour>
    <contour>
      <point x="904" y="62" type="line"/>
      <point x="903" y="0" type="line"/>
      <point x="1379" y="0" type="line"/>
      <point x="1389" y="62" type="line"/>
      <point x="1231" y="84" type="line"/>
      <point x="1387" y="1204" type="line"/>
      <point x="1533" y="1222" type="line"/>
      <point x="1541" y="1292" type="line"/>
      <point x="1078" y="1292" type="line"/>
      <point x="1070" y="1222" type="line"/>
      <point x="1222" y="1204" type="line"/>
      <point x="1069" y="84" type="line"/>
    </contour>
  </outline>
</glyph>
<glyph name="i.sc" format="1">
  <advance width="720"/>
  <outline>
    <contour>
      <point x="460" y="1383" type="move" name="top"/>
    </contour>
    <contour>
      <point x="376" y="0" type="move" name="ogonek"/>
    </contour>
    <contour>
      <point x="278" y="0" type="move" name="bottom"/>
    </contour>
    <contour>
      <point x="37" y="62" type="line"/>
      <point x="32" y="0" type="line"/>
      <point x="510" y="0" type="line"/>
      <point x="517" y="62" type="line"/>
      <point x="353" y="88" type="line"/>
      <point x="509" y="1204" type="line"/>
      <point x="664" y="1222" type="line"/>
      <point x="673" y="1292" type="line"/>
      <point x="214" y="1292" type="line"/>
      <point x="204" y="1222" type="line"/>
      <point x="346" y="1204" type="line"/>
      <point x="190" y="88" type="line"/>
    </contour>
  </outline>
</glyph>
<glyph name="j.sc" format="1">
  <advance width="723"/>
  <outline>
    <contour>
      <point x="282" y="-142" type="move" name="btm"/>
    </contour>
    <contour>
      <point x="451" y="1292" type="move" name="top"/>
    </contour>
    <contour>
      <point x="521" y="1206" type="curve"/>
      <point x="698" y="1222" type="line"/>
      <point x="706" y="1292" type="line"/>
      <point x="199" y="1292" type="line"/>
      <point x="191" y="1222" type="line"/>
      <point x="362" y="1206" type="line"/>
      <point x="318" y="833"/>
      <point x="260" y="407"/>
      <point x="214" y="131" type="curve"/>
      <point x="191" y="-4"/>
      <point x="72" y="-179"/>
      <point x="-153" y="-231" type="curve"/>
      <point x="-121" y="-292" type="line"/>
      <point x="108" y="-257"/>
      <point x="312" y="-124"/>
      <point x="359" y="107" type="curve"/>
      <point x="374" y="191"/>
      <point x="453" y="717"/>
    </contour>
  </outline>
</glyph>
<glyph name="k.sc" format="1">
  <advance width="1401"/>
  <outline>
    <contour>
      <point x="806" y="1292" type="move" name="top"/>
    </contour>
    <contour>
      <point x="670" y="0" type="move" name="bottom"/>
    </contour>
    <contour>
      <point x="18" y="62" type="line"/>
      <point x="10" y="0" type="line"/>
      <point x="487" y="0" type="line"/>
      <point x="493" y="62" type="line"/>
      <point x="332" y="84" type="line"/>
      <point x="492" y="1204" type="line"/>
      <point x="645" y="1222" type="line"/>
      <point x="653" y="1292" type="line"/>
      <point x="195" y="1292" type="line"/>
      <point x="187" y="1222" type="line"/>
      <point x="327" y="1204" type="line"/>
      <point x="170" y="84" type="line"/>
    </contour>
    <contour>
      <point x="373" y="532" type="line"/>
      <point x="371" y="405" type="line"/>
      <point x="624" y="628" type="line"/>
      <point x="682" y="687" type="line"/>
      <point x="1267" y="1206" type="line"/>
      <point x="1389" y="1222" type="line"/>
      <point x="1399" y="1292" type="line"/>
      <point x="977" y="1292" type="line"/>
      <point x="967" y="1222" type="line"/>
      <point x="1110" y="1204" type="line"/>
    </contour>
    <contour>
      <point x="1056" y="0" type="curve"/>
      <point x="1311" y="0" type="line"/>
      <point x="1324" y="68" type="line"/>
      <point x="1184" y="97" type="line"/>
      <point x="1139" y="118"/>
      <point x="1104" y="167"/>
      <point x="959" y="355" type="curve"/>
      <point x="898" y="435"/>
      <point x="739" y="660"/>
      <point x="674" y="738" type="curve"/>
      <point x="574" y="642" type="line"/>
      <point x="654" y="526"/>
      <point x="746" y="396"/>
      <point x="820" y="291" type="curve"/>
      <point x="907" y="168"/>
      <point x="1022" y="0"/>
    </contour>
  </outline>
</glyph>
<glyph name="l.sc" format="1">
  <advance width="1209"/>
  <outline>
    <contour>
      <point x="855" y="966" type="move" name="car"/>
    </contour>
    <contour>
      <point x="439" y="1292" type="move" name="top"/>
    </contour>
    <contour>
      <point x="563" y="0" type="move" name="bottom"/>
    </contour>
    <contour>
      <point x="18" y="62" type="line"/>
      <point x="10" y="0" type="line"/>
      <point x="1013" y="0" type="line"/>
      <point x="1106" y="380" type="line"/>
      <point x="1010" y="395" type="line"/>
      <point x="883" y="91" type="line"/>
      <point x="330" y="84" type="line"/>
      <point x="488" y="1204" type="line"/>
      <point x="667" y="1222" type="line"/>
      <point x="675" y="1292" type="line"/>
      <point x="191" y="1292" type="line"/>
      <point x="183" y="1222" type="line"/>
      <point x="323" y="1204" type="line"/>
      <point x="167" y="84" type="line"/>
    </contour>
  </outline>
</glyph>
<glyph name="m.sc" format="1">
  <advance width="1940"/>
  <outline>
    <contour>
      <point x="1054" y="1292" type="move" name="top"/>
    </contour>
    <contour>
      <point x="860" y="0" type="move" name="bottom"/>
    </contour>
    <contour>
      <point x="-23" y="62" type="line"/>
      <point x="-28" y="0" type="line"/>
      <point x="488" y="0" type="line"/>
      <point x="492" y="62" type="line"/>
      <point x="287" y="84" type="line"/>
      <point x="470" y="876" type="line"/>
      <point x="549" y="1216" type="line"/>
      <point x="626" y="882" type="line"/>
      <point x="832" y="-16" type="line"/>
      <point x="924" y="-4" type="line"/>
      <point x="1404" y="904" type="line"/>
      <point x="1556" y="1218" type="line"/>
      <point x="1536" y="862" type="line"/>
      <point x="1513" y="82" type="line"/>
      <point x="1323" y="64" type="line"/>
      <point x="1317" y="0" type="line"/>
      <point x="1846" y="0" type="line"/>
      <point x="1851" y="62" type="line"/>
      <point x="1675" y="84" type="line"/>
      <point x="1686" y="1204" type="line"/>
      <point x="1872" y="1222" type="line"/>
      <point x="1880" y="1292" type="line"/>
      <point x="1485" y="1292" type="line"/>
      <point x="1023" y="370" type="line"/>
      <point x="919" y="173" type="line"/>
      <point x="877" y="416" type="line"/>
      <point x="679" y="1292" type="line"/>
      <point x="261" y="1292" type="line"/>
      <point x="251" y="1222" type="line"/>
      <point x="443" y="1204" type="line"/>
      <point x="155" y="84" type="line"/>
    </contour>
  </outline>
</glyph>
<glyph name="n.sc" format="1">
  <advance width="1562"/>
  <outline>
    <contour>
      <point x="840" y="1292" type="move" name="top"/>
    </contour>
    <contour>
      <point x="743" y="0" type="move" name="bottom"/>
    </contour>
    <contour>
      <point x="18" y="62" type="line"/>
      <point x="10" y="0" type="line"/>
      <point x="474" y="0" type="line"/>
      <point x="482" y="62" type="line"/>
      <point x="304" y="84" type="line"/>
      <point x="441" y="1220" type="line"/>
      <point x="403" y="1216" type="line"/>
      <point x="517" y="957" type="line"/>
      <point x="1057" y="0" type="line"/>
      <point x="1219" y="0" type="line"/>
      <point x="1396" y="1204" type="line"/>
      <point x="1553" y="1222" type="line"/>
      <point x="1556" y="1292" type="line"/>
      <point x="1110" y="1292" type="line"/>
      <point x="1102" y="1222" type="line"/>
      <point x="1268" y="1206" type="line"/>
      <point x="1122" y="70" type="line"/>
      <point x="1159" y="74" type="line"/>
      <point x="1043" y="337" type="line"/>
      <point x="510" y="1292" type="line"/>
      <point x="193" y="1292" type="line"/>
      <point x="181" y="1222" type="line"/>
      <point x="322" y="1204" type="line"/>
      <point x="166" y="82" type="line"/>
    </contour>
  </outline>
</glyph>
<glyph name="o.sc" format="1">
  <advance width="1430"/>
  <outline>
    <contour>
      <point x="144" y="1292" type="move" name="topleft"/>
    </contour>
    <contour>
      <point x="724" y="648" type="move" name="center"/>
    </contour>
    <contour>
      <point x="628" y="0" type="move" name="bottom"/>
    </contour>
    <contour>
      <point x="798" y="1292" type="move" name="top"/>
    </contour>
    <contour>
      <point x="1086" y="1232" type="move" name="topright"/>
    </contour>
    <contour>
      <point x="821" y="18" type="move" name="ogonek"/>
    </contour>
    <contour>
      <point x="628" y="-18" type="curve"/>
      <point x="1049" y="-18"/>
      <point x="1339" y="328"/>
      <point x="1317" y="772" type="curve"/>
      <point x="1301" y="1105"/>
      <point x="1099" y="1310"/>
      <point x="790" y="1310" type="curve"/>
      <point x="378" y="1310"/>
      <point x="75" y="972"/>
      <point x="94" y="528" type="curve"/>
      <point x="109" y="216"/>
      <point x="295" y="-18"/>
    </contour>
    <contour>
      <point x="649" y="68" type="curve"/>
      <point x="411" y="68"/>
      <point x="270" y="270"/>
      <point x="259" y="546" type="curve"/>
      <point x="244" y="934"/>
      <point x="464" y="1222"/>
      <point x="767" y="1222" type="curve"/>
      <point x="1003" y="1222"/>
      <point x="1134" y="1036"/>
      <point x="1148" y="740" type="curve"/>
      <point x="1165" y="356"/>
      <point x="940" y="68"/>
    </contour>
  </outline>
</glyph>
<glyph name="oe.sc" format="1">
  <advance width="2210"/>
  <outline>
    <contour>
      <point x="641" y="-18" type="curve"/>
      <point x="866" y="-18"/>
      <point x="1053" y="86"/>
      <point x="1171" y="247" type="curve"/>
      <point x="1142" y="0" type="line"/>
      <point x="2036" y="0" type="line"/>
      <point x="2101" y="270" type="line"/>
      <point x="2013" y="290" type="line"/>
      <point x="1921" y="102" type="line"/>
      <point x="1294" y="87" type="line"/>
      <point x="1363" y="624" type="line"/>
      <point x="1841" y="611" type="line"/>
      <point x="1852" y="734" type="line"/>
      <point x="1370" y="713" type="line"/>
      <point x="1436" y="1216" type="line"/>
      <point x="1947" y="1204" type="line"/>
      <point x="1988" y="1036" type="line"/>
      <point x="2077" y="1036" type="line"/>
      <point x="2077" y="1292" type="line"/>
      <point x="1298" y="1292" type="line"/>
      <point x="1262" y="1013" type="line"/>
      <point x="1191" y="1191"/>
      <point x="1030" y="1308"/>
      <point x="798" y="1308" type="curve"/>
      <point x="392" y="1308"/>
      <point x="72" y="978"/>
      <point x="94" y="528" type="curve"/>
      <point x="111" y="179"/>
      <point x="334" y="-18"/>
    </contour>
    <contour>
      <point x="661" y="69" type="curve"/>
      <point x="395" y="69"/>
      <point x="272" y="278"/>
      <point x="260" y="583" type="curve"/>
      <point x="245" y="942"/>
      <point x="477" y="1220"/>
      <point x="777" y="1220" type="curve"/>
      <point x="1013" y="1220"/>
      <point x="1147" y="1069"/>
      <point x="1160" y="744" type="curve"/>
      <point x="1177" y="356"/>
      <point x="964" y="69"/>
    </contour>
  </outline>
</glyph>
<glyph name="p.sc" format="1">
  <advance width="1242"/>
  <outline>
    <contour>
      <point x="745" y="1292" type="move" name="top"/>
    </contour>
    <contour>
      <point x="18" y="62" type="line"/>
      <point x="12" y="0" type="line"/>
      <point x="524" y="0" type="line"/>
      <point x="533" y="62" type="line"/>
      <point x="337" y="84" type="line"/>
      <point x="505" y="1281" type="line"/>
      <point x="460" y="1203" type="line"/>
      <point x="500" y="1210"/>
      <point x="646" y="1224"/>
      <point x="699" y="1224" type="curve"/>
      <point x="916" y="1224"/>
      <point x="1016" y="1146"/>
      <point x="1018" y="965" type="curve"/>
      <point x="1020" y="694"/>
      <point x="883" y="546"/>
      <point x="577" y="546" type="curve"/>
      <point x="517" y="546"/>
      <point x="458" y="550"/>
      <point x="386" y="560" type="curve"/>
      <point x="353" y="466" type="line"/>
      <point x="424" y="464"/>
      <point x="489" y="460"/>
      <point x="572" y="460" type="curve"/>
      <point x="918" y="460"/>
      <point x="1194" y="641"/>
      <point x="1191" y="973" type="curve"/>
      <point x="1190" y="1199"/>
      <point x="1016" y="1306"/>
      <point x="723" y="1306" type="curve"/>
      <point x="614" y="1306"/>
      <point x="547" y="1292"/>
      <point x="436" y="1292" type="curve"/>
      <point x="195" y="1292" type="line"/>
      <point x="190" y="1222" type="line"/>
      <point x="330" y="1204" type="line"/>
      <point x="172" y="84" type="line"/>
    </contour>
  </outline>
</glyph>
<glyph name="q.sc" format="1">
  <advance width="1424"/>
  <outline>
    <contour>
      <point x="953" y="-312" type="curve"/>
      <point x="1069" y="-312"/>
      <point x="1190" y="-272"/>
      <point x="1240" y="-238" type="curve"/>
      <point x="1235" y="-138" type="line"/>
      <point x="1176" y="-162"/>
      <point x="1078" y="-180"/>
      <point x="1004" y="-180" type="curve"/>
      <point x="850" y="-180"/>
      <point x="698" y="-157"/>
      <point x="692" y="-9" type="curve"/>
      <point x="587" y="-13" type="line"/>
      <point x="574" y="-93"/>
      <point x="596" y="-159"/>
      <point x="642" y="-207" type="curve"/>
      <point x="710" y="-277"/>
      <point x="828" y="-312"/>
    </contour>
    <contour>
      <point x="628" y="-18" type="curve"/>
      <point x="1049" y="-18"/>
      <point x="1339" y="328"/>
      <point x="1317" y="772" type="curve"/>
      <point x="1301" y="1105"/>
      <point x="1099" y="1310"/>
      <point x="790" y="1310" type="curve"/>
      <point x="378" y="1310"/>
      <point x="75" y="972"/>
      <point x="94" y="528" type="curve"/>
      <point x="109" y="216"/>
      <point x="295" y="-18"/>
    </contour>
    <contour>
      <point x="649" y="68" type="curve"/>
      <point x="411" y="68"/>
      <point x="270" y="270"/>
      <point x="259" y="546" type="curve"/>
      <point x="244" y="934"/>
      <point x="464" y="1222"/>
      <point x="767" y="1222" type="curve"/>
      <point x="1003" y="1222"/>
      <point x="1134" y="1036"/>
      <point x="1148" y="740" type="curve"/>
      <point x="1165" y="356"/>
      <point x="940" y="68"/>
    </contour>
  </outline>
</glyph>
<glyph name="r.sc" format="1">
  <advance width="1369"/>
  <outline>
    <contour>
      <point x="754" y="1292" type="move" name="top"/>
    </contour>
    <contour>
      <point x="697" y="0" type="move" name="bottom"/>
    </contour>
    <contour>
      <point x="25" y="62" type="line"/>
      <point x="21" y="0" type="line"/>
      <point x="513" y="0" type="line"/>
      <point x="516" y="62" type="line"/>
      <point x="316" y="84" type="line"/>
      <point x="482" y="1282" type="line"/>
      <point x="433" y="1204" type="line"/>
      <point x="496" y="1213"/>
      <point x="604" y="1224"/>
      <point x="684" y="1224" type="curve"/>
      <point x="912" y="1224"/>
      <point x="1008" y="1145"/>
      <point x="1009" y="1005" type="curve"/>
      <point x="1011" y="820"/>
      <point x="904" y="663"/>
      <point x="658" y="652" type="curve"/>
      <point x="558" y="653"/>
      <point x="459" y="653"/>
      <point x="359" y="654" type="curve"/>
      <point x="343" y="571" type="line"/>
      <point x="438" y="571"/>
      <point x="535" y="571"/>
      <point x="630" y="571" type="curve"/>
      <point x="718" y="569"/>
      <point x="823" y="374"/>
      <point x="913" y="205" type="curve"/>
      <point x="997" y="41"/>
      <point x="1037" y="0"/>
      <point x="1082" y="0" type="curve"/>
      <point x="1284" y="0" type="line"/>
      <point x="1286" y="70" type="line"/>
      <point x="1144" y="70"/>
      <point x="1145" y="99"/>
      <point x="1031" y="290" type="curve"/>
      <point x="981" y="374"/>
      <point x="856" y="583"/>
      <point x="776" y="600" type="curve"/>
      <point x="745" y="576" type="line"/>
      <point x="1032" y="618"/>
      <point x="1174" y="789"/>
      <point x="1172" y="1015" type="curve"/>
      <point x="1170" y="1211"/>
      <point x="1006" y="1306"/>
      <point x="714" y="1306" type="curve"/>
      <point x="611" y="1306"/>
      <point x="528" y="1292"/>
      <point x="441" y="1292" type="curve"/>
      <point x="191" y="1292" type="line"/>
      <point x="183" y="1222" type="line"/>
      <point x="320" y="1204" type="line"/>
      <point x="165" y="84" type="line"/>
    </contour>
  </outline>
</glyph>
<glyph name="s.sc" format="1">
  <advance width="1123"/>
  <outline>
    <contour>
      <point x="656" y="1292" type="move" name="top"/>
    </contour>
    <contour>
      <point x="475" y="0" type="move" name="bottom"/>
    </contour>
    <contour>
      <point x="473" y="-20" type="curve"/>
      <point x="783" y="-20"/>
      <point x="996" y="135"/>
      <point x="993" y="364" type="curve"/>
      <point x="991" y="557"/>
      <point x="786" y="646"/>
      <point x="647" y="719" type="curve"/>
      <point x="498" y="795"/>
      <point x="340" y="855"/>
      <point x="338" y="1024" type="curve"/>
      <point x="337" y="1164"/>
      <point x="500" y="1223"/>
      <point x="646" y="1223" type="curve"/>
      <point x="767" y="1223"/>
      <point x="843" y="1197"/>
      <point x="888" y="1169" type="curve"/>
      <point x="904" y="1004" type="line"/>
      <point x="994" y="1004" type="line"/>
      <point x="1035" y="1230" type="line"/>
      <point x="978" y="1262"/>
      <point x="852" y="1306"/>
      <point x="658" y="1306" type="curve"/>
      <point x="390" y="1306"/>
      <point x="178" y="1178"/>
      <point x="181" y="964" type="curve"/>
      <point x="183" y="753"/>
      <point x="410" y="662"/>
      <point x="552" y="588" type="curve"/>
      <point x="694" y="514"/>
      <point x="823" y="461"/>
      <point x="832" y="294" type="curve"/>
      <point x="826" y="136"/>
      <point x="636" y="64"/>
      <point x="474" y="64" type="curve"/>
      <point x="372" y="64"/>
      <point x="236" y="96"/>
      <point x="203" y="143" type="curve"/>
      <point x="186" y="322" type="line"/>
      <point x="88" y="322" type="line"/>
      <point x="52" y="81" type="line"/>
      <point x="103" y="44"/>
      <point x="281" y="-20"/>
    </contour>
  </outline>
</glyph>
<glyph name="schwa.sc" format="1">
  <advance width="1345"/>
  <outline>
    <contour>
      <point x="513" y="-20" type="curve"/>
      <point x="916" y="-20"/>
      <point x="1248" y="314"/>
      <point x="1243" y="772" type="curve"/>
      <point x="1240" y="1102"/>
      <point x="1040" y="1306"/>
      <point x="725" y="1306" type="curve"/>
      <point x="438" y="1306"/>
      <point x="321" y="1242"/>
      <point x="204" y="1238" type="curve"/>
      <point x="163" y="988" type="line"/>
      <point x="250" y="988" type="line"/>
      <point x="310" y="1140" type="line"/>
      <point x="367" y="1180"/>
      <point x="493" y="1228"/>
      <point x="682" y="1228" type="curve"/>
      <point x="906" y="1228"/>
      <point x="1074" y="1064"/>
      <point x="1077" y="750" type="curve"/>
      <point x="1077" y="718"/>
      <point x="1075" y="686"/>
      <point x="1073" y="655" type="curve"/>
      <point x="100" y="654" type="line"/>
      <point x="79" y="608"/>
      <point x="65" y="514"/>
      <point x="66" y="420" type="curve"/>
      <point x="69" y="138"/>
      <point x="235" y="-20"/>
    </contour>
    <contour>
      <point x="560" y="64" type="curve"/>
      <point x="341" y="64"/>
      <point x="230" y="220"/>
      <point x="228" y="392" type="curve"/>
      <point x="228" y="456"/>
      <point x="240" y="518"/>
      <point x="255" y="576" type="curve"/>
      <point x="1063" y="576" type="line"/>
      <point x="1012" y="232"/>
      <point x="810" y="64"/>
    </contour>
  </outline>
</glyph>
<glyph name="t.sc" format="1">
  <advance width="1293"/>
  <outline>
    <contour>
      <point x="725" y="1292" type="move" name="top"/>
    </contour>
    <contour>
      <point x="556" y="0" type="move" name="bottom"/>
    </contour>
    <contour>
      <point x="230" y="67" type="line"/>
      <point x="230" y="0" type="line"/>
      <point x="899" y="0" type="line"/>
      <point x="901" y="67" type="line"/>
      <point x="645" y="82" type="line"/>
      <point x="802" y="1216" type="line"/>
      <point x="1180" y="1202" type="line"/>
      <point x="1172" y="898" type="line"/>
      <point x="1261" y="900" type="line"/>
      <point x="1315" y="1292" type="line"/>
      <point x="135" y="1292" type="line"/>
      <point x="72" y="900" type="line"/>
      <point x="167" y="900" type="line"/>
      <point x="248" y="1202" type="line"/>
      <point x="639" y="1216" type="line"/>
      <point x="481" y="82" type="line"/>
    </contour>
  </outline>
</glyph>
<glyph name="u.sc" format="1">
  <advance width="1428"/>
  <outline>
    <contour>
      <point x="771" y="1292" type="move" name="top"/>
    </contour>
    <contour>
      <point x="773" y="16" type="move" name="ogonek"/>
    </contour>
    <contour>
      <point x="1479" y="1292" type="move" name="topright"/>
    </contour>
    <contour>
      <point x="609" y="0" type="move" name="bottom"/>
    </contour>
    <contour>
      <point x="620" y="-18" type="curve"/>
      <point x="976" y="-18"/>
      <point x="1169" y="134"/>
      <point x="1221" y="532" type="curve"/>
      <point x="1311" y="1206" type="line"/>
      <point x="1445" y="1222" type="line"/>
      <point x="1453" y="1292" type="line"/>
      <point x="1038" y="1292" type="line"/>
      <point x="1032" y="1222" type="line"/>
      <point x="1173" y="1204" type="line"/>
      <point x="1084" y="532" type="line" smooth="yes"/>
      <point x="1045" y="244"/>
      <point x="926" y="62"/>
      <point x="643" y="62" type="curve"/>
      <point x="367" y="62"/>
      <point x="284" y="241"/>
      <point x="319" y="516" type="curve"/>
      <point x="413" y="1204" type="line"/>
      <point x="573" y="1222" type="line"/>
      <point x="578" y="1292" type="line"/>
      <point x="110" y="1292" type="line"/>
      <point x="104" y="1222" type="line"/>
      <point x="246" y="1206" type="line"/>
      <point x="155" y="504" type="line" smooth="yes"/>
      <point x="112" y="177"/>
      <point x="272" y="-18"/>
    </contour>
  </outline>
</glyph>
<glyph name="v.sc" format="1">
  <advance width="1251"/>
  <outline>
    <contour>
      <point x="774" y="1444" type="move" name="top"/>
    </contour>
    <contour>
      <point x="174" y="1204" type="line"/>
      <point x="454" y="-16" type="line"/>
      <point x="599" y="-8" type="line"/>
      <point x="1234" y="1206" type="line"/>
      <point x="1354" y="1222" type="line"/>
      <point x="1361" y="1292" type="line"/>
      <point x="948" y="1292" type="line"/>
      <point x="942" y="1222" type="line"/>
      <point x="1098" y="1204" type="line"/>
      <point x="679" y="389" type="line"/>
      <point x="534" y="68" type="line"/>
      <point x="577" y="64" type="line"/>
      <point x="512" y="389" type="line"/>
      <point x="341" y="1204" type="line"/>
      <point x="526" y="1222" type="line"/>
      <point x="534" y="1292" type="line"/>
      <point x="35" y="1292" type="line"/>
      <point x="29" y="1222" type="line"/>
    </contour>
  </outline>
</glyph>
<glyph name="w.sc" format="1">
  <advance width="1855"/>
  <outline>
    <contour>
      <point x="1028" y="1292" type="move" name="top"/>
    </contour>
    <contour>
      <point x="845" y="0" type="move" name="bottom"/>
    </contour>
    <contour>
      <point x="152" y="1204" type="line"/>
      <point x="391" y="-8" type="line"/>
      <point x="554" y="-8" type="line"/>
      <point x="1006" y="975" type="line"/>
      <point x="969" y="1169" type="line"/>
      <point x="590" y="332" type="line"/>
      <point x="485" y="69" type="line"/>
      <point x="526" y="66" type="line"/>
      <point x="463" y="376" type="line"/>
      <point x="310" y="1206" type="line"/>
      <point x="496" y="1222" type="line"/>
      <point x="500" y="1292" type="line"/>
      <point x="9" y="1292" type="line"/>
      <point x="3" y="1222" type="line"/>
    </contour>
    <contour>
      <point x="910" y="1206" type="line"/>
      <point x="1104" y="-8" type="line"/>
      <point x="1269" y="-8" type="line"/>
      <point x="1874" y="1204" type="line"/>
      <point x="2018" y="1222" type="line"/>
      <point x="2029" y="1292" type="line"/>
      <point x="1585" y="1292" type="line"/>
      <point x="1580" y="1222" type="line"/>
      <point x="1740" y="1204" type="line"/>
      <point x="1324" y="350" type="line"/>
      <point x="1202" y="70" type="line"/>
      <point x="1238" y="66" type="line"/>
      <point x="1201" y="376" type="line"/>
      <point x="1078" y="1206" type="line"/>
      <point x="1258" y="1222" type="line"/>
      <point x="1274" y="1292" type="line"/>
      <point x="776" y="1292" type="line"/>
      <point x="768" y="1222" type="line"/>
    </contour>
  </outline>
</glyph>
<glyph name="x.sc" format="1">
  <advance width="1383"/>
  <outline>
    <contour>
      <point x="-38" y="62" type="line"/>
      <point x="-44" y="0" type="line"/>
      <point x="438" y="0" type="line"/>
      <point x="445" y="62" type="line"/>
      <point x="260" y="84" type="line"/>
      <point x="661" y="560" type="line"/>
      <point x="769" y="660" type="line"/>
      <point x="1251" y="1206" type="line"/>
      <point x="1401" y="1222" type="line"/>
      <point x="1404" y="1292" type="line"/>
      <point x="927" y="1292" type="line"/>
      <point x="921" y="1222" type="line"/>
      <point x="1097" y="1204" type="line"/>
      <point x="716" y="748" type="line"/>
      <point x="609" y="652" type="line"/>
      <point x="102" y="82" type="line"/>
    </contour>
    <contour>
      <point x="757" y="62" type="line"/>
      <point x="753" y="0" type="line"/>
      <point x="1297" y="0" type="line"/>
      <point x="1298" y="62" type="line"/>
      <point x="1130" y="84" type="line"/>
      <point x="769" y="660" type="line"/>
      <point x="716" y="748" type="line"/>
      <point x="468" y="1206" type="line"/>
      <point x="645" y="1222" type="line"/>
      <point x="651" y="1292" type="line"/>
      <point x="131" y="1292" type="line"/>
      <point x="123" y="1222" type="line"/>
      <point x="279" y="1202" type="line"/>
      <point x="609" y="652" type="line"/>
      <point x="661" y="560" type="line"/>
      <point x="939" y="82" type="line"/>
    </contour>
  </outline>
</glyph>
<glyph name="y.sc" format="1">
  <advance width="1221"/>
  <outline>
    <contour>
      <point x="145" y="1292" type="move" name="topleft"/>
    </contour>
    <contour>
      <point x="713" y="1292" type="move" name="top"/>
    </contour>
    <contour>
      <point x="557" y="0" type="move" name="bottom"/>
    </contour>
    <contour>
      <point x="252" y="62" type="line"/>
      <point x="247" y="0" type="line"/>
      <point x="870" y="0" type="line"/>
      <point x="876" y="62" type="line"/>
      <point x="647" y="84" type="line"/>
      <point x="712" y="569" type="line"/>
      <point x="661" y="442" type="line"/>
      <point x="1206" y="1206" type="line"/>
      <point x="1321" y="1222" type="line"/>
      <point x="1327" y="1292" type="line"/>
      <point x="912" y="1292" type="line"/>
      <point x="902" y="1222" type="line"/>
      <point x="1064" y="1204" type="line"/>
      <point x="726" y="704" type="line"/>
      <point x="605" y="531" type="line"/>
      <point x="675" y="525" type="line"/>
      <point x="595" y="706" type="line"/>
      <point x="334" y="1204" type="line"/>
      <point x="525" y="1222" type="line"/>
      <point x="535" y="1292" type="line"/>
      <point x="33" y="1292" type="line"/>
      <point x="29" y="1222" type="line"/>
      <point x="150" y="1204" type="line"/>
      <point x="580" y="438" type="line"/>
      <point x="553" y="569" type="line"/>
      <point x="492" y="84" type="line"/>
    </contour>
  </outline>
</glyph>
<glyph name="z.sc" format="1">
  <advance width="1238"/>
  <outline>
    <contour>
      <point x="688" y="1292" type="move" name="top"/>
    </contour>
    <contour>
      <point x="557" y="0" type="move" name="bottom"/>
    </contour>
    <contour>
      <point x="3" y="64" type="line"/>
      <point x="26" y="0" type="line"/>
      <point x="1070" y="0" type="line"/>
      <point x="1156" y="308" type="line"/>
      <point x="1057" y="332" type="line"/>
      <point x="939" y="96" type="line"/>
      <point x="201" y="78" type="line"/>
      <point x="346" y="230" type="line"/>
      <point x="1208" y="1232" type="line"/>
      <point x="1187" y="1292" type="line"/>
      <point x="219" y="1292" type="line"/>
      <point x="170" y="996" type="line"/>
      <point x="266" y="980" type="line"/>
      <point x="349" y="1204" type="line"/>
      <point x="1021" y="1210" type="line"/>
      <point x="845" y="1042" type="line"/>
    </contour>
  </outline>
</glyph>
